# xmcd
#
# Track frame offsets:
#  150
#  15754
#  39314
#  51943
#  66588
#  84082
#  111534
#  132470
#  148807
#  165936
#  184687
#  209588
#  230406
#  242985
#  268590
#  290026
#
# Disc length: 4209 seconds
#
# Revision: 0
# Processed by: cddbd v1.5.1PL0 Copyright (c) Steve Scherf et al.
# Submitted via: Collectorz.com_Music_Collector 6.9
#
DISCID=ec106f10
DTITLE=Nina Simone - Fine And Mellow
DYEAR=2004
DGENRE=Blues Rock
TTITLE0=Fine and Mellow
TTITLE1=Ne Me Quitte Pas
TTITLE2=I'll Look Around
TTITLE3=To Love Somebody
TTITLE4=For All We Know
TTITLE5=Gin House Blues
TTITLE6=Ain't Got No - I Got Life
TTITLE7=Wild Is the Wind
TTITLE8=Cotton Eyed Joe
TTITLE9=No Opportunity Necessary No Experience Needed
TTITLE10=Toucing and Caring
TTITLE11=Just In Time
TTITLE12=Ain't No Use
TTITLE13=After You've Gone
TTITLE14=When I Was A Young Girl
TTITLE15=Summertime
EXTD=
EXTT0=
EXTT1=
EXTT2=
EXTT3=
EXTT4=
EXTT5=
EXTT6=
EXTT7=
EXTT8=
EXTT9=
EXTT10=
EXTT11=
EXTT12=
EXTT13=
EXTT14=
EXTT15=
PLAYORDER=
